<svg width="24" height="25" viewBox="0 0 24 25" fill="none" xmlns="http://www.w3.org/2000/svg">
<path d="M13.576 17.5001L8.46599 14.7131C7.97548 15.2 7.3518 15.5308 6.67358 15.6637C5.99535 15.7967 5.29295 15.7259 4.65491 15.4602C4.01688 15.1945 3.47178 14.7459 3.08834 14.1709C2.70489 13.5959 2.50027 12.9202 2.50027 12.2291C2.50027 11.538 2.70489 10.8623 3.08834 10.2873C3.47178 9.7123 4.01688 9.26368 4.65491 8.99801C5.29295 8.73235 5.99535 8.66153 6.67358 8.79449C7.3518 8.92744 7.97548 9.25822 8.46599 9.74511L13.576 6.95811C13.4007 6.13585 13.5273 5.27798 13.9326 4.54137C14.3378 3.80476 14.9947 3.23865 15.7831 2.94655C16.5714 2.65445 17.4386 2.65589 18.226 2.9506C19.0134 3.24531 19.6684 3.8136 20.0712 4.55155C20.474 5.2895 20.5978 6.14779 20.4198 6.96947C20.2418 7.79115 19.774 8.5213 19.1019 9.02642C18.4298 9.53153 17.5984 9.77784 16.7596 9.72031C15.9208 9.66278 15.1308 9.30526 14.534 8.71311L9.42399 11.5001C9.52592 11.9808 9.52592 12.4775 9.42399 12.9581L14.534 15.7451C15.1308 15.153 15.9208 14.7954 16.7596 14.7379C17.5984 14.6804 18.4298 14.9267 19.1019 15.4318C19.774 15.9369 20.2418 16.6671 20.4198 17.4888C20.5978 18.3104 20.474 19.1687 20.0712 19.9067C19.6684 20.6446 19.0134 21.2129 18.226 21.5076C17.4386 21.8023 16.5714 21.8038 15.7831 21.5117C14.9947 21.2196 14.3378 20.6535 13.9326 19.9169C13.5273 19.1803 13.4007 18.3224 13.576 17.5001Z" fill="#770015"/>
</svg>
