<svg width="24" height="25" viewBox="0 0 24 25" fill="none" xmlns="http://www.w3.org/2000/svg">
<path d="M4.00002 6.64333L0.757019 3.40133L2.17202 1.98633L5.41402 5.22933H20.656C20.8119 5.22932 20.9656 5.26574 21.1049 5.3357C21.2442 5.40565 21.3652 5.50719 21.4583 5.63222C21.5513 5.75726 21.6139 5.90231 21.6409 6.05581C21.668 6.20932 21.6588 6.36702 21.614 6.51633L19.214 14.5163C19.1523 14.7224 19.0257 14.9031 18.8531 15.0315C18.6806 15.16 18.4712 15.2293 18.256 15.2293H6.00002V17.2293H17V19.2293H5.00002C4.7348 19.2293 4.48045 19.124 4.29291 18.9364C4.10538 18.7489 4.00002 18.4945 4.00002 18.2293V6.64333ZM5.50002 23.2293C5.10219 23.2293 4.72066 23.0713 4.43936 22.79C4.15805 22.5087 4.00002 22.1272 4.00002 21.7293C4.00002 21.3315 4.15805 20.95 4.43936 20.6687C4.72066 20.3874 5.10219 20.2293 5.50002 20.2293C5.89784 20.2293 6.27938 20.3874 6.56068 20.6687C6.84198 20.95 7.00002 21.3315 7.00002 21.7293C7.00002 22.1272 6.84198 22.5087 6.56068 22.79C6.27938 23.0713 5.89784 23.2293 5.50002 23.2293ZM17.5 23.2293C17.1022 23.2293 16.7207 23.0713 16.4394 22.79C16.1581 22.5087 16 22.1272 16 21.7293C16 21.3315 16.1581 20.95 16.4394 20.6687C16.7207 20.3874 17.1022 20.2293 17.5 20.2293C17.8978 20.2293 18.2794 20.3874 18.5607 20.6687C18.842 20.95 19 21.3315 19 21.7293C19 22.1272 18.842 22.5087 18.5607 22.79C18.2794 23.0713 17.8978 23.2293 17.5 23.2293Z" fill="#770015"/>
</svg>
